# xmcd CD database file
#
# Track frame offsets:
#	150
#	18773
#	36040
#	48088
#	64683
#	82743
#	97230
#	111605
#	127890
#	142763
#
# Disc length: 2117 seconds
#
# Revision: 6
# Processed by: cddbd v1.5.2PL0 Copyright (c) Steve Scherf et al.
# Submitted via: CDex 1.51
#
DISCID=7608430a
DTITLE=Trisha Yearwood - Trisha Yearwood
DYEAR=1991
DGENRE=Country
TTITLE0=She's In Love With The Boy
TTITLE1=The Woman Before Me
TTITLE2=That's What I Like About You
TTITLE3=Like We Never Had A Broken Heart
TTITLE4=Fools Like Me
TTITLE5=Victim Of The Game
TTITLE6=When Goodbye Was A Word
TTITLE7=The Whisper Of Your Heart
TTITLE8=You Done Me Wrong (And That Ain't Right)
TTITLE9=Lonesome Dove
EXTD=(c)1991 MCA Records\nupc 008811029722\nMCA MCAD-10297\nProduced by Garth Fundis\n YEAR: 1991
EXTT0=
EXTT1=
EXTT2=
EXTT3=
EXTT4=
EXTT5=
EXTT6=
EXTT7=
EXTT8=
EXTT9=
PLAYORDER=
